<?xml version="1.0" standalone="no"?>
<!DOCTYPE svg PUBLIC "-//W3C//DTD SVG 20010904//EN"
 "http://www.w3.org/TR/2001/REC-SVG-20010904/DTD/svg10.dtd">
<svg version="1.0" xmlns="http://www.w3.org/2000/svg"
 width="992.000000pt" height="1061.000000pt" viewBox="0 0 992.000000 1061.000000"
 preserveAspectRatio="xMidYMid meet">

<g transform="translate(0.000000,1061.000000) scale(0.100000,-0.100000)"
fill="#000000" stroke="none">
<path d="M4790 10263 c-1365 -33 -2804 -305 -4105 -774 -104 -37 -233 -86
-285 -107 l-95 -38 -3 -548 -2 -547 22 7 c1317 419 2479 654 3698 748 521 41
1303 53 1760 27 976 -54 1823 -182 2790 -421 300 -74 690 -183 900 -251 69
-22 131 -42 138 -44 9 -4 12 112 12 553 l0 557 -178 69 c-1401 542 -3020 809
-4652 769z m360 -292 l0 -79 -237 -6 c-131 -3 -321 -10 -422 -14 l-184 -9 -24
-27 c-31 -36 -28 -82 7 -107 23 -18 37 -18 225 -9 515 25 607 11 668 -103 18
-35 22 -58 22 -132 -1 -98 -12 -130 -62 -177 -54 -52 -96 -59 -383 -68 -275
-9 -653 -28 -682 -34 -14 -3 -17 8 -20 79 l-3 83 65 6 c78 7 396 23 644 32
156 5 181 9 197 25 26 26 26 92 -1 119 -24 24 -42 25 -447 8 -235 -9 -301 -9
-335 2 -99 29 -138 88 -138 210 0 119 42 185 142 230 62 27 320 43 766 48
l202 2 0 -79z m555 64 c157 -7 665 -42 738 -51 l47 -7 0 -84 0 -84 -32 6 c-35
5 -376 35 -409 35 -18 0 -19 -9 -19 -318 l0 -318 -92 3 c-51 2 -103 6 -115 9
l-23 4 0 319 0 318 -152 6 c-83 4 -186 7 -230 7 l-78 0 0 86 0 86 113 -6 c61
-3 175 -8 252 -11z m-1915 -451 l1 -399 -38 -6 c-21 -4 -71 -10 -110 -13 l-73
-7 0 400 c0 221 3 401 8 402 82 10 208 25 209 24 2 -1 3 -181 3 -401z m3090
346 c196 -26 593 -91 773 -126 l137 -27 0 -82 0 -82 -177 33 c-193 36 -694
116 -699 112 -5 -6 -9 -137 -4 -142 3 -2 156 -30 340 -61 184 -30 364 -61 400
-68 l65 -12 3 -79 3 -79 -33 7 c-52 11 -667 114 -724 121 l-51 7 -5 -79 c-3
-43 -4 -79 -3 -81 2 -2 47 -10 101 -18 198 -29 413 -66 602 -101 l192 -37 0
-84 c0 -82 -1 -84 -22 -79 -123 30 -636 116 -975 163 l-123 17 0 404 0 403 23
-5 c12 -2 92 -14 177 -25z m-3523 -161 c-5 -4 -37 -9 -71 -13 -79 -8 -511 -79
-688 -113 l-138 -26 0 -84 c0 -81 1 -83 23 -78 92 21 768 135 800 135 4 0 7
-36 7 -80 l0 -79 -32 -6 c-18 -3 -131 -21 -250 -40 -120 -19 -292 -49 -383
-66 l-165 -31 0 -149 c0 -132 -2 -148 -17 -153 -10 -3 -60 -14 -110 -24 l-93
-18 0 398 0 398 23 5 c139 32 710 134 1002 177 l90 14 6 -81 c3 -45 1 -83 -4
-86z m4938 -108 c382 -96 605 -159 649 -185 59 -35 122 -104 147 -161 25 -57
31 -185 11 -246 -19 -55 -63 -91 -127 -104 l-56 -11 105 -163 c59 -89 106
-164 106 -166 0 -6 -265 76 -268 83 -2 6 -97 157 -177 282 -22 34 -26 36 -226
88 -112 29 -207 52 -211 52 -5 0 -8 -59 -8 -131 l0 -131 -22 6 c-13 4 -62 16
-110 27 l-88 21 0 405 c0 380 1 404 18 399 9 -3 125 -32 257 -65z m-6400 -32
c52 -15 100 -65 115 -120 20 -74 9 -206 -24 -272 -50 -102 -107 -136 -336
-196 -131 -34 -486 -130 -542 -147 -15 -4 -18 -22 -20 -131 l-3 -125 -107 -32
-108 -33 0 403 c0 222 2 404 5 404 3 0 83 23 178 51 369 109 730 205 787 208
8 0 33 -4 55 -10z"/>
<path d="M8240 9405 c0 -78 3 -107 13 -111 7 -2 87 -24 178 -48 90 -24 221
-58 291 -77 124 -33 127 -33 147 -15 17 16 21 31 21 82 0 92 -16 107 -165 150
-109 31 -467 124 -480 124 -3 0 -5 -47 -5 -105z"/>
<path d="M1630 9429 c-66 -17 -336 -92 -487 -135 l-53 -15 0 -111 c0 -109 0
-110 23 -105 89 19 626 172 644 183 29 18 47 77 39 132 -11 79 -31 86 -166 51z"/>
<path d="M4870 8843 c-184 -3 -679 -22 -787 -30 l-82 -6 -15 -43 -15 -44 497
-457 c273 -252 566 -523 652 -603 86 -80 252 -233 368 -340 117 -107 212 -199
212 -205 0 -6 -22 -76 -49 -155 -417 -1230 -499 -1480 -486 -1480 39 0 1138
290 1151 303 7 7 133 375 282 819 l271 807 -207 194 c-198 186 -794 737 -931
862 -36 32 -129 118 -206 190 -77 72 -157 145 -178 163 l-38 32 -147 -2 c-81
-1 -212 -3 -292 -5z m601 -320 c276 -253 921 -847 1096 -1011 79 -74 143 -140
143 -147 0 -19 -487 -1467 -497 -1475 -9 -7 -101 -32 -561 -150 -244 -63 -302
-75 -297 -62 4 10 56 161 115 337 60 176 170 502 245 724 75 222 135 409 133
415 -2 7 -95 97 -208 202 -113 104 -457 423 -765 709 -711 658 -667 617 -663
620 7 8 477 22 754 23 l301 2 204 -187z"/>
<path d="M5470 8842 c0 -4 64 -66 143 -137 78 -72 180 -166 227 -210 47 -44
168 -157 269 -250 249 -229 731 -676 809 -750 l63 -60 -199 -590 c-110 -324
-241 -715 -292 -868 -51 -153 -98 -280 -104 -282 -28 -8 -242 -64 -769 -201
-557 -144 -569 -147 -586 -128 -17 18 -13 33 110 394 70 206 200 591 289 854
l161 479 -28 27 c-15 15 -120 112 -233 216 -113 103 -266 245 -340 314 -74 69
-194 180 -265 246 -202 185 -719 662 -797 734 l-69 65 17 48 c9 26 14 51 10
54 -3 3 -47 1 -98 -6 -51 -6 -163 -18 -248 -27 -224 -22 -545 -67 -855 -119
-148 -25 -299 -50 -335 -56 -36 -5 -70 -15 -76 -22 -17 -18 -105 -277 -98
-288 3 -6 182 -173 397 -371 733 -677 1151 -1063 1217 -1124 36 -33 81 -75
100 -92 l35 -31 -279 -833 c-154 -458 -287 -851 -296 -872 l-16 -40 -415 -108
c-997 -259 -929 -243 -947 -225 -15 16 -13 26 27 139 89 254 531 1573 531
1584 0 7 -107 110 -237 230 -131 121 -269 249 -308 285 -38 36 -187 173 -330
304 -327 300 -696 640 -799 736 l-79 75 46 139 c26 77 47 143 47 147 0 7 -47
-4 -130 -32 -30 -10 -142 -44 -248 -76 l-192 -58 3 -2185 c2 -2034 4 -2193 20
-2281 54 -293 151 -543 313 -811 478 -791 1521 -1500 3025 -2057 348 -130 684
-237 1094 -350 244 -68 220 -65 351 -37 213 46 636 155 875 225 1055 310 1898
728 2549 1262 159 131 399 370 520 518 277 340 473 738 542 1097 l23 118 0
2283 0 2284 -75 24 c-41 13 -81 24 -88 24 -10 0 -12 -168 -12 -847 l1 -848
-353 -92 c-445 -117 -972 -253 -981 -253 -3 0 -11 8 -16 19 -10 18 54 217 473
1461 47 140 86 257 86 260 0 3 -60 60 -132 126 -73 67 -243 223 -377 347 -262
244 -244 231 -376 250 -16 3 -64 12 -105 20 -488 102 -1141 181 -1820 222
-277 17 -370 19 -370 7z m-4734 -2609 c94 -87 205 -190 248 -230 l79 -72 -21
-63 c-164 -496 -406 -1205 -412 -1212 -8 -8 -96 3 -192 25 -47 11 -48 12 -48
51 0 33 3 39 17 34 10 -2 45 -10 78 -16 33 -6 67 -13 76 -16 20 -6 -1 -64 230
625 99 294 178 540 177 546 -3 11 -116 120 -320 307 l-105 98 -54 -18 c-106
-37 -105 -37 -101 8 4 39 5 39 76 64 39 13 78 25 87 25 9 1 92 -70 185 -156z
m-40 -185 c96 -89 174 -164 174 -167 0 -3 -79 -240 -177 -527 -155 -457 -179
-521 -195 -516 -17 4 -18 33 -18 682 0 638 1 679 18 683 9 3 18 5 20 6 2 0 82
-72 178 -161z m7370 -40 c193 -181 611 -568 874 -808 140 -129 281 -257 313
-286 31 -29 57 -59 57 -67 0 -8 -7 -34 -16 -58 -16 -45 -409 -1207 -633 -1872
l-128 -379 126 -119 126 -119 -95 -96 c-177 -179 -435 -390 -683 -558 l-87
-60 -33 30 c-17 17 -129 120 -247 229 -118 109 -253 235 -299 278 l-84 80 116
346 c63 190 237 710 387 1155 149 445 270 814 268 821 -3 11 -64 67 -798 745
-212 195 -405 373 -429 396 -40 37 -43 44 -37 76 3 19 12 42 19 52 8 11 94 38
257 80 385 101 791 207 840 221 25 7 52 14 61 14 8 1 65 -45 125 -101z m-2926
-905 c382 -352 820 -756 969 -891 75 -68 137 -129 139 -136 2 -7 -53 -179
-122 -382 -68 -203 -242 -717 -385 -1142 -144 -426 -263 -778 -266 -782 -3 -5
131 -134 297 -287 167 -153 365 -336 442 -408 76 -71 154 -143 173 -159 19
-16 31 -32 26 -36 -11 -10 -277 -97 -488 -159 -186 -55 -716 -191 -743 -191
-15 0 -577 511 -930 845 l-53 50 219 655 c121 360 296 883 390 1162 l171 507
-87 78 c-47 43 -305 281 -572 528 -267 248 -517 478 -554 512 l-68 62 17 50
c9 28 24 52 33 55 9 3 123 32 252 66 129 33 377 98 550 144 173 46 322 85 330
85 8 0 125 -101 260 -226z m-3224 -625 c44 -40 220 -201 390 -358 170 -157
438 -404 597 -549 158 -145 287 -269 287 -276 0 -7 -108 -334 -241 -726 -132
-393 -275 -815 -316 -939 -42 -124 -77 -227 -79 -229 -10 -11 -377 196 -579
327 -147 96 -375 262 -375 274 0 7 292 887 317 954 2 5 -157 158 -354 340
-616 567 -766 706 -845 784 l-78 75 16 46 15 46 217 57 c414 108 827 216 877
230 28 8 55 15 61 15 6 1 46 -32 90 -71z"/>
<path d="M7625 5954 c-154 -41 -392 -104 -530 -139 -137 -36 -252 -69 -256
-73 -4 -4 34 -45 85 -91 50 -46 118 -109 151 -140 85 -80 783 -724 925 -854
l118 -107 -13 -43 c-7 -23 -173 -517 -367 -1097 -195 -581 -364 -1086 -375
-1123 l-21 -68 236 -217 c130 -119 262 -241 293 -269 l56 -53 114 82 c232 165
475 365 594 487 l49 51 -59 52 c-33 29 -86 78 -118 108 l-59 56 145 429 c80
237 256 758 391 1160 l247 729 -23 22 c-23 22 -544 502 -628 578 -25 23 -106
98 -180 167 -333 311 -465 429 -479 428 -9 0 -142 -34 -296 -75z"/>
<path d="M4455 5146 c-209 -56 -446 -119 -527 -140 -82 -22 -148 -42 -148 -47
0 -8 150 -148 446 -419 93 -85 205 -189 249 -230 44 -41 194 -180 333 -309
138 -128 252 -234 252 -235 0 -1 -173 -519 -385 -1151 -212 -633 -384 -1157
-383 -1166 2 -9 131 -135 288 -279 157 -145 356 -329 443 -409 87 -80 164
-147 172 -149 15 -3 433 100 602 148 193 56 468 142 476 149 8 8 -8 23 -208
206 -66 60 -228 209 -360 330 -132 122 -257 237 -278 256 l-38 34 170 505 c93
278 210 627 261 775 113 334 350 1038 350 1041 0 1 -107 100 -237 220 -131
120 -382 351 -557 514 -469 434 -499 460 -521 459 -11 -1 -191 -47 -400 -103z"/>
<path d="M1360 4354 c-234 -63 -473 -126 -532 -141 -60 -15 -108 -30 -108 -34
0 -4 251 -238 557 -521 307 -283 596 -550 642 -594 l84 -80 -161 -479 -161
-480 26 -20 c205 -159 785 -519 804 -497 3 4 87 248 186 542 100 294 234 692
299 884 l118 349 -40 35 c-213 192 -943 863 -1189 1095 -34 32 -69 56 -80 55
-11 0 -211 -52 -445 -114z"/>
<path d="M1950 8498 c-172 -39 -832 -205 -919 -230 l-44 -13 -48 -144 c-27
-79 -46 -148 -43 -152 5 -8 657 -613 819 -759 39 -36 217 -200 395 -365 178
-165 370 -343 427 -395 57 -52 103 -100 103 -106 0 -7 -75 -235 -166 -506
-306 -911 -375 -1121 -369 -1126 5 -5 238 54 880 222 l280 73 42 124 c23 68
147 436 274 817 l232 694 -29 28 c-34 32 -530 491 -714 660 -473 435 -1010
932 -1010 934 0 1 20 62 45 136 25 74 45 138 45 142 0 11 -6 10 -200 -34z
m-20 -214 l-23 -68 79 -74 c87 -83 299 -279 693 -641 319 -293 867 -798 934
-861 l48 -45 -247 -740 c-136 -407 -248 -741 -250 -743 -2 -3 -356 -98 -691
-184 -95 -24 -173 -42 -173 -39 0 3 111 336 247 740 188 559 244 737 236 750
-14 23 -367 352 -1305 1218 l-436 404 24 73 c24 71 26 73 67 83 23 6 177 44
342 86 327 82 468 115 474 111 1 -2 -7 -33 -19 -70z"/>
<path d="M8100 8516 c0 -2 145 -138 323 -301 177 -163 326 -302 331 -309 6 -8
-76 -266 -231 -727 -305 -906 -306 -909 -299 -916 5 -5 255 58 846 213 135 36
253 67 263 70 16 5 17 53 17 829 l0 824 -97 30 c-229 70 -625 174 -935 246
-196 45 -218 49 -218 41z m695 -300 c116 -31 255 -69 310 -84 l100 -29 3 -725
2 -726 -22 -6 c-20 -5 -521 -137 -701 -184 -32 -8 -60 -12 -63 -9 -3 3 105
335 241 738 135 404 244 738 243 744 -2 6 -83 84 -180 174 -98 90 -178 165
-178 168 0 2 8 2 18 -1 9 -2 112 -29 227 -60z"/>
</g>
</svg>
