<svg width="1323" height="1415" viewBox="0 0 1323 1415" fill="none" xmlns="http://www.w3.org/2000/svg">
<path d="M638.667 46.2666C456.667 50.6666 264.8 86.9332 91.3333 149.467C77.4667 154.4 60.2667 160.933 53.3333 163.733L40.6667 168.8L40.2667 241.867L40 314.8L42.9333 313.867C218.533 258 373.467 226.667 536 214.133C605.467 208.667 709.733 207.067 770.667 210.533C900.8 217.733 1013.73 234.8 1142.67 266.667C1182.67 276.533 1234.67 291.067 1262.67 300.133C1271.87 303.067 1280.13 305.733 1281.07 306C1282.27 306.533 1282.67 291.067 1282.67 232.267V158L1258.93 148.8C1072.13 76.5332 856.267 40.9332 638.667 46.2666ZM686.667 85.1999V95.7332L655.067 96.5332C637.6 96.9332 612.267 97.8666 598.8 98.3999L574.267 99.5999L571.067 103.2C566.933 108 567.333 114.133 572 117.467C575.067 119.867 576.933 119.867 602 118.667C670.667 115.333 682.933 117.2 691.067 132.4C693.467 137.067 694 140.133 694 150C693.867 163.067 692.4 167.333 685.733 173.6C678.533 180.533 672.933 181.467 634.667 182.667C598 183.867 547.6 186.4 543.733 187.2C541.867 187.6 541.467 186.133 541.067 176.667L540.667 165.6L549.333 164.8C559.733 163.867 602.133 161.733 635.2 160.533C656 159.867 659.333 159.333 661.467 157.2C664.933 153.733 664.933 144.933 661.333 141.333C658.133 138.133 655.733 138 601.733 140.267C570.4 141.467 561.6 141.467 557.067 140C543.867 136.133 538.667 128.267 538.667 112C538.667 96.1332 544.267 87.3332 557.6 81.3332C565.867 77.7332 600.267 75.5999 659.733 74.9332L686.667 74.6666V85.1999ZM760.667 76.6666C781.6 77.5999 849.333 82.2666 859.067 83.4666L865.333 84.3999V95.5999V106.8L861.067 106C856.4 105.333 810.933 101.333 806.533 101.333C804.133 101.333 804 102.533 804 143.733V186.133L791.733 185.733C784.933 185.467 778 184.933 776.4 184.533L773.333 184V141.467V99.0666L753.067 98.2666C742 97.7332 728.267 97.3332 722.4 97.3332H712V85.8666V74.3999L727.067 75.1999C735.2 75.5999 750.4 76.2666 760.667 76.6666ZM505.333 136.8L505.467 190L500.4 190.8C497.6 191.333 490.933 192.133 485.733 192.533L476 193.467V140.133C476 110.667 476.4 86.6666 477.067 86.5332C488 85.1999 504.8 83.1999 504.933 83.3332C505.2 83.4666 505.333 107.467 505.333 136.8ZM917.333 90.6666C943.467 94.1332 996.4 102.8 1020.4 107.467L1038.67 111.067V122V132.933L1015.07 128.533C989.333 123.733 922.533 113.067 921.867 113.6C921.2 114.4 920.667 131.867 921.333 132.533C921.733 132.8 942.133 136.533 966.667 140.667C991.2 144.667 1015.2 148.8 1020 149.733L1028.67 151.333L1029.07 161.867L1029.47 172.4L1025.07 171.467C1018.13 170 936.133 156.267 928.533 155.333L921.733 154.4L921.067 164.933C920.667 170.667 920.533 175.467 920.667 175.733C920.933 176 926.933 177.067 934.133 178.133C960.533 182 989.2 186.933 1014.4 191.6L1040 196.533V207.733C1040 218.667 1039.87 218.933 1037.07 218.267C1020.67 214.267 952.267 202.8 907.067 196.533L890.667 194.267V140.4V86.6666L893.733 87.3332C895.333 87.5999 906 89.1999 917.333 90.6666ZM447.6 112.133C446.933 112.667 442.667 113.333 438.133 113.867C427.6 114.933 370 124.4 346.4 128.933L328 132.4V143.6C328 154.4 328.133 154.667 331.067 154C343.333 151.2 433.467 136 437.733 136C438.267 136 438.667 140.8 438.667 146.667V157.2L434.4 158C432 158.4 416.933 160.8 401.067 163.333C385.067 165.867 362.133 169.867 350 172.133L328 176.267V196.133C328 213.733 327.733 215.867 325.733 216.533C324.4 216.933 317.733 218.4 311.067 219.733L298.667 222.133V169.067V116L301.733 115.333C320.267 111.067 396.4 97.4666 435.333 91.7332L447.333 89.8666L448.133 100.667C448.533 106.667 448.267 111.733 447.6 112.133ZM1106 126.533C1156.93 139.333 1186.67 147.733 1192.53 151.2C1200.4 155.867 1208.8 165.067 1212.13 172.667C1215.47 180.267 1216.27 197.333 1213.6 205.467C1211.07 212.8 1205.2 217.6 1196.67 219.333L1189.2 220.8L1203.2 242.533C1211.07 254.4 1217.33 264.4 1217.33 264.667C1217.33 265.467 1182 254.533 1181.6 253.6C1181.33 252.8 1168.67 232.667 1158 216C1155.07 211.467 1154.53 211.2 1127.87 204.267C1112.93 200.4 1100.27 197.333 1099.73 197.333C1099.07 197.333 1098.67 205.2 1098.67 214.8V232.267L1095.73 231.467C1094 230.933 1087.47 229.333 1081.07 227.867L1069.33 225.067V171.067C1069.33 120.4 1069.47 117.2 1071.73 117.867C1072.93 118.267 1088.4 122.133 1106 126.533ZM252.667 130.8C259.6 132.8 266 139.467 268 146.8C270.667 156.667 269.2 174.267 264.8 183.067C258.133 196.667 250.533 201.2 220 209.2C202.533 213.733 155.2 226.533 147.733 228.8C145.733 229.333 145.333 231.733 145.067 246.267L144.667 262.933L130.4 267.2L116 271.6V217.867C116 188.267 116.267 164 116.667 164C117.067 164 127.733 160.933 140.4 157.2C189.6 142.667 237.733 129.867 245.333 129.467C246.4 129.467 249.733 130 252.667 130.8Z" fill="white"/>
<path d="M1098.67 160.667C1098.67 171.067 1099.07 174.933 1100.4 175.467C1101.33 175.733 1112 178.667 1124.13 181.867C1136.13 185.067 1153.6 189.6 1162.93 192.133C1179.47 196.533 1179.87 196.533 1182.53 194.133C1184.8 192 1185.33 190 1185.33 183.2C1185.33 170.933 1183.2 168.933 1163.33 163.2C1148.8 159.067 1101.07 146.667 1099.33 146.667C1098.93 146.667 1098.67 152.933 1098.67 160.667Z" fill="white"/>
<path d="M217.333 157.467C208.533 159.733 172.533 169.733 152.4 175.467L145.333 177.467V192.267C145.333 206.8 145.333 206.933 148.4 206.267C160.267 203.733 231.867 183.333 234.267 181.867C238.133 179.467 240.533 171.6 239.467 164.267C238 153.733 235.333 152.8 217.333 157.467Z" fill="white"/>
<path d="M649.333 235.6C624.8 236 558.8 238.533 544.4 239.6L533.467 240.4L531.467 246.133L529.467 252L595.733 312.933C632.133 346.533 671.2 382.667 682.667 393.333C694.133 404 716.267 424.4 731.733 438.667C747.333 452.933 760 465.2 760 466C760 466.8 757.067 476.133 753.467 486.667C697.867 650.667 686.933 684 688.667 684C693.867 684 840.4 645.333 842.133 643.6C843.067 642.667 859.867 593.6 879.733 534.4L915.867 426.8L888.267 400.933C861.867 376.133 782.4 302.667 764.133 286C759.333 281.733 746.933 270.267 736.667 260.667C726.4 251.067 715.733 241.333 712.933 238.933L707.867 234.667L688.267 234.933C677.467 235.067 660 235.333 649.333 235.6ZM729.467 278.267C766.267 312 852.267 391.2 875.6 413.067C886.133 422.933 894.667 431.733 894.667 432.667C894.667 435.2 829.733 628.267 828.4 629.333C827.2 630.267 814.933 633.6 753.6 649.333C721.067 657.733 713.333 659.333 714 657.6C714.533 656.267 721.467 636.133 729.333 612.667C737.333 589.2 752 545.733 762 516.133C772 486.533 780 461.6 779.733 460.8C779.467 459.867 767.067 447.867 752 433.867C736.933 420 691.067 377.467 650 339.333C555.2 251.6 561.067 257.067 561.6 256.667C562.533 255.6 625.2 253.733 662.133 253.6L702.267 253.333L729.467 278.267Z" fill="white"/>
<path d="M729.333 235.733C729.333 236.267 737.867 244.533 748.4 254C758.8 263.6 772.4 276.133 778.667 282C784.933 287.867 801.067 302.933 814.533 315.333C847.733 345.867 912 405.467 922.4 415.333L930.8 423.333L904.267 502C889.6 545.2 872.133 597.333 865.333 617.733C858.533 638.133 852.267 655.067 851.467 655.333C847.733 656.4 819.2 663.867 748.933 682.133C674.667 701.333 673.067 701.733 670.8 699.2C668.533 696.8 669.067 694.8 685.467 646.667C694.8 619.2 712.133 567.867 724 532.8L745.467 468.933L741.733 465.333C739.733 463.333 725.733 450.4 710.667 436.533C695.6 422.8 675.2 403.867 665.333 394.667C655.467 385.467 639.467 370.667 630 361.867C603.067 337.2 534.133 273.6 523.733 264L514.533 255.333L516.8 248.933C518 245.467 518.667 242.133 518.133 241.733C517.733 241.333 511.867 241.6 505.067 242.533C498.267 243.333 483.333 244.933 472 246.133C442.133 249.067 399.333 255.067 358 262C338.267 265.333 318.133 268.667 313.333 269.467C308.533 270.133 304 271.467 303.2 272.4C300.933 274.8 289.2 309.333 290.133 310.8C290.533 311.6 314.4 333.867 343.067 360.267C440.8 450.533 496.533 502 505.333 510.133C510.133 514.533 516.133 520.133 518.667 522.4L523.333 526.533L486.133 637.6C465.6 698.667 447.867 751.067 446.667 753.867L444.533 759.2L389.2 773.6C256.267 808.133 265.333 806 262.933 803.6C260.933 801.467 261.2 800.133 266.533 785.067C278.4 751.2 337.333 575.333 337.333 573.867C337.333 572.933 323.067 559.2 305.733 543.2C288.267 527.067 269.867 510 264.667 505.2C259.6 500.4 239.733 482.133 220.667 464.667C177.067 424.667 127.867 379.333 114.133 366.533L103.6 356.533L109.733 338C113.2 327.733 116 318.933 116 318.4C116 317.467 109.733 318.933 98.6667 322.667C94.6667 324 79.7333 328.533 65.6 332.8L40 340.533L40.4 631.867C40.6667 903.067 40.9333 924.267 43.0667 936C50.2667 975.067 63.2 1008.4 84.8 1044.13C148.533 1149.6 287.6 1244.13 488.133 1318.4C534.533 1335.73 579.333 1350 634 1365.07C666.533 1374.13 663.333 1373.73 680.8 1370C709.2 1363.87 765.6 1349.33 797.467 1340C938.133 1298.67 1050.53 1242.93 1137.33 1171.73C1158.53 1154.27 1190.53 1122.4 1206.67 1102.67C1243.6 1057.33 1269.73 1004.27 1278.93 956.4L1282 940.667V636.267V331.733L1272 328.533C1266.53 326.8 1261.2 325.333 1260.27 325.333C1258.93 325.333 1258.67 347.733 1258.67 438.267L1258.8 551.333L1211.73 563.6C1152.4 579.2 1082.13 597.333 1080.93 597.333C1080.53 597.333 1079.47 596.267 1078.8 594.8C1077.47 592.4 1086 565.867 1141.87 400C1148.13 381.333 1153.33 365.733 1153.33 365.333C1153.33 364.933 1145.33 357.333 1135.73 348.533C1126 339.6 1103.33 318.8 1085.47 302.267C1050.53 269.733 1052.93 271.467 1035.33 268.933C1033.2 268.533 1026.8 267.333 1021.33 266.267C956.267 252.667 869.2 242.133 778.667 236.667C741.733 234.4 729.333 234.133 729.333 235.733ZM98.1333 583.6C110.667 595.2 125.467 608.933 131.2 614.267L141.733 623.867L138.933 632.267C117.067 698.4 84.8 792.933 84 793.867C82.9333 794.933 71.2 793.467 58.4 790.533C52.1333 789.067 52 788.933 52 783.733C52 779.333 52.4 778.533 54.2667 779.2C55.6 779.467 60.2667 780.533 64.6667 781.333C69.0667 782.133 73.6 783.067 74.8 783.467C77.4667 784.267 74.6667 792 105.467 700.133C118.667 660.933 129.2 628.133 129.067 627.333C128.667 625.867 113.6 611.333 86.4 586.4L72.4 573.333L65.2 575.733C51.0667 580.667 51.2 580.667 51.7333 574.667C52.2667 569.467 52.4 569.467 61.8667 566.133C67.0667 564.4 72.2667 562.8 73.4667 562.8C74.6667 562.667 85.7333 572.133 98.1333 583.6ZM92.8 608.267C105.6 620.133 116 630.133 116 630.533C116 630.933 105.467 662.533 92.4 700.8C71.7333 761.733 68.5333 770.267 66.4 769.6C64.1333 769.067 64 765.2 64 678.667C64 593.6 64.1333 588.133 66.4 587.6C67.6 587.2 68.8 586.933 69.0667 586.8C69.3333 586.8 80 596.4 92.8 608.267ZM1075.47 613.6C1101.2 637.733 1156.93 689.333 1192 721.333C1210.67 738.533 1229.47 755.6 1233.73 759.467C1237.87 763.333 1241.33 767.333 1241.33 768.4C1241.33 769.467 1240.4 772.933 1239.2 776.133C1237.07 782.133 1184.67 937.067 1154.8 1025.73L1137.73 1076.27L1154.53 1092.13L1171.33 1108L1158.67 1120.8C1135.07 1144.67 1100.67 1172.8 1067.6 1195.2L1056 1203.2L1051.6 1199.2C1049.33 1196.93 1034.4 1183.2 1018.67 1168.67C1002.93 1154.13 984.933 1137.33 978.8 1131.6L967.6 1120.93L983.067 1074.8C991.467 1049.47 1014.67 980.133 1034.67 920.8C1054.53 861.467 1070.67 812.267 1070.4 811.333C1070 809.867 1061.87 802.4 964 712C935.733 686 910 662.267 906.8 659.2C901.467 654.267 901.067 653.333 901.867 649.067C902.267 646.533 903.467 643.467 904.4 642.133C905.467 640.667 916.933 637.067 938.667 631.467C990 618 1044.13 603.867 1050.67 602C1054 601.067 1057.6 600.133 1058.8 600.133C1059.87 600 1067.47 606.133 1075.47 613.6ZM685.333 734.267C736.267 781.2 794.667 835.067 814.533 853.067C824.533 862.133 832.8 870.267 833.067 871.2C833.333 872.133 826 895.067 816.8 922.133C807.733 949.2 784.533 1017.73 765.467 1074.4C746.267 1131.2 730.4 1178.13 730 1178.67C729.6 1179.33 747.467 1196.53 769.6 1216.93C791.867 1237.33 818.267 1261.73 828.533 1271.33C838.667 1280.8 849.067 1290.4 851.6 1292.53C854.133 1294.67 855.733 1296.8 855.067 1297.33C853.6 1298.67 818.133 1310.27 790 1318.53C765.2 1325.87 694.533 1344 690.933 1344C688.933 1344 614 1275.87 566.933 1231.33L559.867 1224.67L589.067 1137.33C605.2 1089.33 628.533 1019.6 641.067 982.4L663.867 914.8L652.267 904.4C646 898.667 611.6 866.933 576 834C540.4 800.933 507.067 770.267 502.133 765.733L493.067 757.467L495.333 750.8C496.533 747.067 498.533 743.867 499.733 743.467C500.933 743.067 516.133 739.2 533.333 734.667C550.533 730.267 583.6 721.6 606.667 715.467C629.733 709.333 649.6 704.133 650.667 704.133C651.733 704.133 667.333 717.6 685.333 734.267ZM255.467 817.6C261.333 822.933 284.8 844.4 307.467 865.333C330.133 886.267 365.867 919.2 387.067 938.533C408.133 957.867 425.333 974.4 425.333 975.333C425.333 976.267 410.933 1019.87 393.2 1072.13C375.6 1124.53 356.533 1180.8 351.067 1197.33C345.467 1213.87 340.8 1227.6 340.533 1227.87C339.2 1229.33 290.267 1201.73 263.333 1184.27C243.733 1171.47 213.333 1149.33 213.333 1147.73C213.333 1146.8 252.267 1029.47 255.6 1020.53C255.867 1019.87 234.667 999.467 208.4 975.2C126.267 899.6 106.267 881.067 95.7333 870.667L85.3333 860.667L87.4667 854.533L89.4667 848.4L118.4 840.8C173.6 826.4 228.667 812 235.333 810.133C239.067 809.067 242.667 808.133 243.467 808.133C244.267 808 249.6 812.4 255.467 817.6Z" fill="white"/>
<path d="M260 281.6C237.067 286.8 149.067 308.933 137.467 312.267L131.6 314L125.2 333.2C121.6 343.733 119.067 352.933 119.467 353.467C120.133 354.533 207.067 435.2 228.667 454.667C233.867 459.467 257.6 481.333 281.333 503.333C305.067 525.333 330.667 549.067 338.267 556C345.867 562.933 352 569.333 352 570.133C352 571.067 342 601.467 329.867 637.6C289.067 759.067 279.867 787.067 280.667 787.733C281.333 788.4 312.4 780.533 398 758.133L435.333 748.4L440.933 731.867C444 722.8 460.533 673.733 477.467 622.933L508.4 530.4L504.533 526.667C500 522.4 433.867 461.2 409.333 438.667C346.267 380.667 274.667 314.4 274.667 314.133C274.667 314 277.333 305.867 280.667 296C284 286.133 286.667 277.6 286.667 277.067C286.667 275.6 285.867 275.733 260 281.6ZM257.333 310.133L254.267 319.2L264.8 329.067C276.4 340.133 304.667 366.267 357.2 414.533C399.733 453.6 472.8 520.933 481.733 529.333L488.133 535.333L455.2 634C437.067 688.267 422.133 732.8 421.867 733.067C421.6 733.467 374.4 746.133 329.733 757.6C317.067 760.8 306.667 763.2 306.667 762.8C306.667 762.4 321.467 718 339.6 664.133C364.667 589.6 372.133 565.867 371.067 564.133C369.2 561.067 322.133 517.2 197.067 401.733L138.933 347.867L142.133 338.133C145.333 328.667 145.6 328.4 151.067 327.067C154.133 326.267 174.667 321.2 196.667 315.6C240.267 304.667 259.067 300.267 259.867 300.8C260 301.067 258.933 305.2 257.333 310.133Z" fill="white"/>
<path d="M1080 279.2C1080 279.467 1099.33 297.6 1123.07 319.333C1146.67 341.067 1166.53 359.6 1167.2 360.533C1168 361.6 1157.07 396 1136.4 457.467C1095.73 578.267 1095.6 578.667 1096.53 579.6C1097.2 580.267 1130.53 571.867 1209.33 551.2C1227.33 546.4 1243.07 542.267 1244.4 541.867C1246.53 541.2 1246.67 534.8 1246.67 431.333V321.467L1233.73 317.467C1203.2 308.133 1150.4 294.267 1109.07 284.667C1082.93 278.667 1080 278.133 1080 279.2ZM1172.67 319.2C1188.13 323.333 1206.67 328.4 1214 330.4L1227.33 334.267L1227.73 430.933L1228 527.733L1225.07 528.533C1222.4 529.2 1155.6 546.8 1131.6 553.067C1127.33 554.133 1123.6 554.667 1123.2 554.267C1122.8 553.867 1137.2 509.6 1155.33 455.867C1173.33 402 1187.87 357.467 1187.73 356.667C1187.47 355.867 1176.67 345.467 1163.73 333.467C1150.67 321.467 1140 311.467 1140 311.067C1140 310.8 1141.07 310.8 1142.4 311.2C1143.6 311.467 1157.33 315.067 1172.67 319.2Z" fill="white"/>
</svg>
