<svg width="256" height="20" viewBox="0 0 256 20" fill="none" xmlns="http://www.w3.org/2000/svg">
<path d="M32.0469 3.95312H3.95312V9.45312L32.0938 9.40625C33.0417 9.40625 33.5208 8.89062 33.5312 7.85938L33.5469 5.46875C33.5573 4.45833 33.0573 3.95312 32.0469 3.95312ZM3.95312 13.3438V19.5781H0V0.046875H32.7188C35.9167 0.046875 37.5156 1.59375 37.5156 4.6875V8.53125C37.5156 11.75 35.9323 13.3594 32.7656 13.3594L3.95312 13.3438ZM45.5156 19.5781H41.5469V0.015625H79.0469V3.92188H45.5156V8.625H79.0469V12.5938H45.5156V19.5781ZM82.8438 19.5156V0H86.8281V19.5156H82.8438ZM127.516 14.7812C127.516 17.9792 125.922 19.5781 122.734 19.5781H90L90.0469 15.7031H122.047C123.078 15.7031 123.604 15.224 123.625 14.2656L123.641 13.3125C123.661 12.2812 123.125 11.7656 122.031 11.7656H94.7344C91.5781 11.7656 90 10.3021 90 7.375V4.78125C90 1.61458 91.5469 0.03125 94.6406 0.03125L127.516 0V3.92188H95.4688C94.4375 3.92188 93.9219 4.44271 93.9219 5.48438V6.26562C93.9219 7.32812 94.4271 7.85938 95.4375 7.85938H122.734C125.922 7.85938 127.516 9.40104 127.516 12.4844V14.7812ZM154.938 19.5781H150.25V3.96875H130.688V0H174.438V3.92188H154.938V19.5781ZM215.109 19.5781H177.609V0.015625H215.109V3.9375H181.578V7.85938H215.109V11.7812H181.578V15.6875H215.109V19.5781ZM255.875 19.5781H251.109L246.391 13.3125H222.266V19.5781H218.312L218.359 0.046875H251.188C254.281 0.046875 255.828 1.58333 255.828 4.65625V8.65625C255.828 11.7604 254.25 13.3125 251.094 13.3125L255.875 19.5781ZM250.25 3.9375H222.266V9.4375H250.375C251.406 9.4375 251.927 8.88542 251.938 7.78125L251.969 5.51562C251.979 4.46354 251.406 3.9375 250.25 3.9375Z" fill="white"/>
</svg>
